<svg xmlns="http://www.w3.org/2000/svg"  viewBox="0 0 256 256" width="64px" height="64px" fill-rule="evenodd" clip-rule="evenodd"><path fill="#E96C7A" fill-rule="evenodd" d="M66.368,182.668c11.072,11.322,22.688,21.286,33.259,29.268 c4.471,3.377,13.816,10.301,20.772,15.426c5.1,3.759,12.046,3.76,17.148,0.004c6.964-5.126,16.351-12.053,20.825-15.431 c33.29-25.137,76.956-69.92,81.3-114.92c2.777-28.775-12.259-58.526-40.473-68.248c-22.165-7.637-55.766-0.281-70.162,20.045 h-0.078c-14.398-20.326-47.996-27.683-70.161-20.045c-28.214,9.722-43.25,39.473-40.472,68.248 c2.499,25.889,18.015,51.705,37.08,73.751L66.368,182.668z" clip-rule="evenodd"/><path fill="#3A312A" d="M128.976,231.7c-3.318,0-6.636-1.043-9.467-3.129c-6.883-5.072-16.323-12.067-20.785-15.437 c-11.654-8.799-23.213-18.971-33.428-29.417c-0.58-0.592-0.569-1.542,0.023-2.121c0.592-0.58,1.543-0.569,2.121,0.023 c10.112,10.34,21.555,20.41,33.091,29.12c4.453,3.363,13.881,10.349,20.757,15.416c4.595,3.386,10.771,3.388,15.369,0.004 c7.057-5.194,16.395-12.085,20.811-15.42c36.354-27.451,76.647-71.78,80.711-113.867c1.356-14.055-1.636-28.397-8.427-40.386 c-7.185-12.684-17.918-21.778-31.041-26.3c-20.781-7.157-53.998-0.912-68.45,19.495c-0.28,0.397-0.737,0.633-1.224,0.633 s-1.021-0.236-1.302-0.633c-14.454-20.407-47.675-26.652-68.448-19.495c-13.124,4.522-23.857,13.617-31.042,26.3 c-6.791,11.989-9.783,26.331-8.426,40.386c2.165,22.425,14.863,47.638,36.722,72.914c0.542,0.627,0.473,1.574-0.154,2.116 c-0.626,0.542-1.574,0.473-2.116-0.153C32.005,146,19.059,120.208,16.834,97.161c-1.416-14.662,1.71-29.632,8.802-42.152 c7.55-13.33,18.849-22.894,32.674-27.658c21.232-7.315,54.907-1.215,70.689,19.004c15.779-20.219,49.46-26.318,70.689-19.004 c13.826,4.764,25.124,14.328,32.675,27.658c7.092,12.52,10.218,27.49,8.803,42.152c-1.989,20.599-12.118,42.699-30.107,65.689 c-18.61,23.783-40.431,41.713-51.781,50.284c-4.429,3.343-13.777,10.243-20.84,15.441C135.607,230.658,132.291,231.7,128.976,231.7 z"/><path fill="#D6DF58" d="M54.964,193.788c0,0,3.408,12.659,13.222,13.246c0,0-13.1,4.525-13.321,14.202 c0,0-2.578-13.572-12.925-14.059C41.94,207.178,53.99,205.352,54.964,193.788z"/><path fill="#3A312A" d="M54.864,222.736c-0.713,0-1.335-0.506-1.472-1.217c-0.024-0.124-2.495-12.418-11.522-12.842 c-0.77-0.037-1.388-0.651-1.428-1.421c-0.04-0.77,0.511-1.445,1.273-1.561c0.441-0.069,10.894-1.817,11.754-12.033 c0.061-0.725,0.634-1.301,1.359-1.367c0.72-0.064,1.393,0.399,1.583,1.102c0.032,0.116,3.259,11.626,11.864,12.14 c0.714,0.043,1.298,0.584,1.396,1.292c0.098,0.708-0.319,1.388-0.994,1.623c-0.121,0.042-12.118,4.311-12.313,12.819 c-0.018,0.767-0.61,1.396-1.375,1.46C54.948,222.734,54.905,222.736,54.864,222.736z M47.123,207.006 c3.878,1.969,6.23,5.746,7.586,8.877c2.026-4.021,5.942-6.787,8.949-8.427c-4.134-1.842-6.783-5.651-8.334-8.722 C53.532,203.094,50.054,205.602,47.123,207.006z"/><path fill="#D6DF58" d="M33.265,210.769c0,0,2.411,8.954,9.352,9.369c0,0-9.266,3.201-9.422,10.045c0,0-1.824-9.6-9.142-9.944 C24.053,220.239,32.576,218.948,33.265,210.769z"/><path fill="#3A312A" d="M33.194,231.683c-0.714,0-1.337-0.507-1.473-1.22c-0.016-0.082-1.704-8.442-7.739-8.726 c-0.771-0.037-1.388-0.651-1.428-1.421c-0.04-0.771,0.511-1.445,1.273-1.561c0.296-0.047,7.364-1.243,7.942-8.114 c0.061-0.726,0.635-1.303,1.36-1.368c0.732-0.066,1.392,0.4,1.582,1.102l0,0c0.021,0.079,2.227,7.919,7.993,8.264 c0.715,0.043,1.299,0.585,1.397,1.294c0.098,0.709-0.319,1.388-0.996,1.622c-0.08,0.028-8.282,2.953-8.412,8.662 c-0.018,0.767-0.611,1.397-1.376,1.461C33.277,231.682,33.235,231.683,33.194,231.683z M28.675,220.156 c2.107,1.333,3.523,3.394,4.447,5.28c1.376-2.232,3.515-3.872,5.364-4.973c-2.287-1.269-3.884-3.35-4.941-5.223 C32.373,217.526,30.531,219.115,28.675,220.156z"/><path fill="#D6DF58" d="M33.265,184.111c0,0,2.411,8.954,9.352,9.37c0,0-9.266,3.201-9.422,10.045c0,0-1.824-9.6-9.142-9.944 C24.053,193.582,32.576,192.29,33.265,184.111z"/><path fill="#3A312A" d="M33.194,205.026c-0.713,0-1.337-0.507-1.472-1.22c-0.016-0.082-1.704-8.442-7.739-8.726 c-0.77-0.037-1.387-0.651-1.427-1.421c-0.04-0.771,0.511-1.445,1.273-1.561c0.296-0.047,7.364-1.243,7.942-8.114 c0.061-0.726,0.635-1.303,1.36-1.368c0.732-0.067,1.392,0.399,1.582,1.102l0,0c0.021,0.079,2.227,7.92,7.994,8.265 c0.714,0.043,1.299,0.585,1.396,1.294c0.098,0.709-0.32,1.388-0.996,1.622c-0.081,0.028-8.282,2.952-8.412,8.662 c-0.018,0.767-0.611,1.397-1.376,1.461C33.277,205.024,33.235,205.026,33.194,205.026z M28.675,193.499 c2.107,1.333,3.523,3.394,4.447,5.28c1.376-2.233,3.515-3.872,5.365-4.973c-2.287-1.27-3.884-3.35-4.941-5.224 C32.373,190.868,30.531,192.457,28.675,193.499z"/><path fill="#D24E5C" d="M238.18,96.87c-4.06,42.09-44.36,86.42-80.71,113.87c-4.47,3.37-13.78,10.25-20.81,15.42 c-4.54,3.33-10.61,3.38-15.18,0.12c0.06-0.03,0.12-0.08,0.18-0.12c7.03-5.17,16.34-12.05,20.81-15.42 c36.35-27.45,76.65-71.78,80.71-113.87c1.36-14.05-1.64-28.39-8.43-40.38c-7.18-12.69-17.92-21.78-31.04-26.3 c-3.43-1.18-7.2-2-11.17-2.44c9.37-1,18.6-0.17,26.17,2.44c13.12,4.52,23.86,13.61,31.04,26.3 C236.54,68.48,239.54,82.82,238.18,96.87z"/><path fill="#FAE6CA" d="M183.074,122.315c0,0-5.814-8.374-7.574-10.815l-48.511,39.514l1.938,1.492l2.815,2.16 c1.344,1.046,2.798,1.828,4.32,2.356c3.835,1.344,8.7,1.743,12.314-0.008l34.451-34.46 C182.913,122.468,182.989,122.4,183.074,122.315z"/><path fill="#3A312A" d="M142.662,159.689c-2.282,0-4.713-0.417-7.097-1.252c-1.698-0.588-3.296-1.459-4.745-2.587l-4.746-3.647 c-0.363-0.28-0.579-0.71-0.585-1.168c-0.006-0.458,0.197-0.894,0.553-1.184l48.511-39.514c0.319-0.261,0.735-0.376,1.144-0.324 c0.409,0.054,0.778,0.275,1.02,0.61c1.748,2.424,7.352,10.495,7.59,10.837c0.414,0.596,0.342,1.403-0.172,1.916l-0.246,0.238 l-34.452,34.46c-0.118,0.119-0.256,0.216-0.406,0.289C147.207,159.247,145.014,159.689,142.662,159.689z M129.405,150.981 l3.25,2.495c1.197,0.932,2.506,1.646,3.897,2.128c3.103,1.086,7.571,1.683,10.949,0.162l33.621-33.629 c-1.328-1.911-4.188-6.02-5.916-8.463L129.405,150.981z"/><path fill="#87796F" d="M49.165,136.458l13.899-13.899c3.344-3.344,8.766-3.344,12.11,0l36.686,36.686 c3.344,3.344,3.344,8.766,0,12.11l-13.899,13.898L49.165,136.458z"/><path fill="#3A312A" d="M97.961,186.754c-0.384,0-0.768-0.146-1.061-0.439l-48.796-48.796c-0.586-0.585-0.586-1.536,0-2.121 l13.899-13.899c3.923-3.924,10.309-3.923,14.231,0l36.686,36.687c3.923,3.923,3.923,10.308,0,14.231l-13.898,13.899 C98.728,186.607,98.345,186.754,97.961,186.754z M51.286,136.458l46.675,46.675l12.838-12.838c2.754-2.754,2.754-7.235,0.001-9.989 l-36.687-36.687c-2.753-2.753-7.234-2.754-9.989,0L51.286,136.458z"/><path fill="#D6DF58" d="M73.829,132.033c-2.523-2.523-6.612-2.523-9.135,0c-2.523,2.522-2.523,6.612,0,9.135 c2.522,2.523,6.612,2.523,9.135,0C76.351,138.645,76.351,134.556,73.829,132.033z"/><path fill="#3A312A" d="M69.261,144.556c-2.038,0-4.076-0.775-5.628-2.327c-3.103-3.104-3.103-8.153,0-11.256 c3.102-3.103,8.152-3.104,11.256,0l0,0c3.104,3.103,3.104,8.153,0,11.256C73.338,143.78,71.3,144.556,69.261,144.556z M69.262,131.644c-1.27,0-2.54,0.483-3.507,1.45c-1.934,1.934-1.934,5.08,0,7.014c1.935,1.933,5.081,1.933,7.014,0 c1.934-1.934,1.934-5.08,0-7.014C71.802,132.127,70.532,131.644,69.262,131.644z"/><path fill="#87796F" d="M182.363,162.93l26.472-26.472l-13.898-13.899c-3.344-3.344-8.766-3.344-12.11,0l-36.686,36.686 c-3.344,3.344-3.344,8.766,0,12.11l13.899,13.898l10.365-10.365L182.363,162.93z"/><path fill="#3A312A" d="M160.039,186.754c-0.384,0-0.768-0.146-1.061-0.439l-13.898-13.899c-1.901-1.901-2.948-4.428-2.948-7.116 c0-2.688,1.047-5.215,2.948-7.116l36.686-36.686c3.924-3.923,10.308-3.924,14.232,0l13.898,13.899c0.586,0.586,0.586,1.536,0,2.121 l-26.472,26.472c-0.586,0.586-1.535,0.586-2.121,0c-0.586-0.585-0.586-1.536,0-2.121l25.411-25.412l-12.838-12.838 c-2.755-2.754-7.236-2.753-9.989,0.001l-36.686,36.686c-1.334,1.334-2.069,3.108-2.069,4.994c0,1.887,0.735,3.661,2.069,4.995 l12.838,12.838l9.305-9.305c0.586-0.586,1.535-0.586,2.121,0c0.586,0.585,0.586,1.536,0,2.121L161.1,186.315 C160.807,186.607,160.423,186.754,160.039,186.754z"/><path fill="#D6DF58" d="M184.171,132.033c2.523-2.523,6.612-2.523,9.135,0c2.523,2.522,2.523,6.612,0,9.135 c-2.522,2.523-6.612,2.523-9.135,0C181.649,138.645,181.648,134.556,184.171,132.033z"/><path fill="#3A312A" d="M188.738,144.556c-2.038,0-4.076-0.776-5.628-2.328c-3.104-3.103-3.104-8.153,0-11.256 c3.104-3.104,8.152-3.104,11.256,0c3.104,3.103,3.104,8.153,0,11.256C192.814,143.78,190.776,144.556,188.738,144.556z M188.738,131.644c-1.27,0-2.54,0.483-3.507,1.45c-1.934,1.934-1.934,5.08,0,7.014c1.934,1.934,5.08,1.934,7.014,0 c1.934-1.934,1.934-5.08,0-7.014C191.278,132.127,190.008,131.644,188.738,131.644z"/><path fill="#FAE6CA" d="M180.084,102.798c-2.859-3.787-8.669-4.227-12.986-0.978l-5.039,3.804l-0.008-0.017l10.135-7.641 c4.309-3.249,5.494-8.959,2.635-12.754c-2.859-3.787-8.677-4.227-12.986-0.978l-7.851,5.934l-0.017-0.008l6.762-5.097 c2.718-2.047,4.185-5.072,4.185-7.981c0-1.707-0.505-3.373-1.558-4.773c-2.859-3.787-8.669-4.227-12.978-0.978l-8.478,6.39 l-0.016-0.008l7.168-5.469c4.318-3.249,5.495-8.959,2.635-12.754c-2.851-3.787-8.66-4.227-12.978-0.986 c0,0-15.651,13.035-16.09,13.507L91.48,100.13c-2.063,1.856-3.903,3.953-5.494,6.224l-5.064,7.26l-0.025-0.033 c-1.425,1.989-6.05,8.669-6.05,8.669c0.116,0.099,0.216,0.199,0.323,0.307l34.633,34.633c3.58,1.558,8.279,1.135,12-0.166 c1.517-0.53,2.975-1.309,4.318-2.354l51.335-39.117C181.766,112.304,182.943,106.594,180.084,102.798z"/><path fill="#3A312A" d="M115.159,159.691c-2.181,0-4.226-0.375-5.954-1.127c-0.172-0.075-0.329-0.182-0.462-0.315L74.11,123.616 c-0.079-0.079-0.151-0.153-0.236-0.226c-0.585-0.5-0.698-1.362-0.26-1.995c0.189-0.273,4.648-6.712,6.064-8.688 c0.064-0.089,0.137-0.17,0.217-0.242l4.86-6.969c1.68-2.396,3.604-4.576,5.722-6.481l31.137-28.118l0.001,0.001 c1.115-1.024,10.493-8.849,16.135-13.548c5.032-3.777,11.794-3.202,15.136,1.237c1.646,2.185,2.23,4.951,1.645,7.788 c-0.111,0.541-0.264,1.073-0.454,1.592c3.967-0.924,8.089,0.274,10.477,3.438c1.219,1.622,1.861,3.584,1.861,5.678 c0,1.273-0.238,2.539-0.686,3.743c3.906-0.842,7.939,0.369,10.289,3.483c3.075,4.083,2.221,10.031-1.779,13.876 c2.772,0.206,5.345,1.462,7.042,3.71c0,0,0.001,0.001,0.001,0.001c3.351,4.45,2.04,11.113-2.923,14.854l-51.329,39.112 c-1.424,1.108-3.02,1.978-4.731,2.577C119.913,159.273,117.461,159.691,115.159,159.691z M110.655,155.919 c3.355,1.339,7.679,0.728,10.654-0.312c1.404-0.491,2.713-1.205,3.892-2.122l51.346-39.125c3.648-2.751,4.695-7.528,2.34-10.657 l0,0c-2.356-3.121-7.239-3.428-10.887-0.683l-5.038,3.802c-0.348,0.263-0.791,0.36-1.22,0.269c-0.427-0.092-0.792-0.365-1-0.748 c-0.357-0.653-0.189-1.484,0.404-1.932l10.136-7.642c3.646-2.748,4.696-7.527,2.341-10.653c-2.356-3.123-7.242-3.43-10.885-0.683 l-7.851,5.933c-0.455,0.344-1.066,0.399-1.575,0.145c-0.464-0.232-0.784-0.692-0.831-1.209c-0.048-0.517,0.168-1.026,0.583-1.338 l6.763-5.097c2.247-1.692,3.588-4.228,3.588-6.783c0-1.439-0.435-2.778-1.258-3.873c-2.354-3.119-7.234-3.427-10.875-0.681 l-8.479,6.389c-0.443,0.335-1.038,0.397-1.541,0.16c-0.475-0.223-0.806-0.682-0.861-1.203c-0.056-0.521,0.157-1.037,0.573-1.355 l7.168-5.469c1.805-1.357,3.027-3.231,3.45-5.283c0.409-1.98,0.018-3.89-1.102-5.377c-2.347-3.119-7.228-3.429-10.879-0.689 c-6.045,5.037-15.341,12.805-15.929,13.366l-31.196,28.175c-1.951,1.755-3.724,3.764-5.271,5.971l-5.062,7.257 c-0.07,0.1-0.151,0.19-0.24,0.269c-1.192,1.677-3.834,5.48-5.112,7.324L110.655,155.919z"/><path fill="#FAE6CA" d="M121.919,82.476l-10.791-11.722c-3.524-3.828-3.652-9.444-0.285-12.543l0,0 c3.367-3.1,8.953-2.509,12.477,1.32l10.791,11.722c3.524,3.828,3.652,9.444,0.285,12.544l0,0 C131.029,86.895,125.443,86.304,121.919,82.476z"/><path fill="#3A312A" d="M129.148,87.276c-2.96,0-6.038-1.29-8.333-3.784l0,0L110.024,71.77c-1.952-2.12-3.06-4.793-3.122-7.527 c-0.064-2.806,0.975-5.341,2.925-7.136c1.95-1.796,4.559-2.625,7.354-2.326c2.72,0.288,5.292,1.613,7.244,3.733l10.791,11.722 c1.951,2.12,3.061,4.794,3.122,7.527c0.063,2.807-0.976,5.341-2.926,7.136C133.676,86.497,131.447,87.276,129.148,87.276z M123.022,81.46c2.958,3.214,7.605,3.768,10.358,1.232c1.307-1.203,2.002-2.929,1.958-4.861c-0.046-2.004-0.873-3.98-2.33-5.563 l-10.791-11.722c-1.458-1.583-3.358-2.572-5.352-2.782c-1.921-0.206-3.7,0.347-5.006,1.55c-1.307,1.203-2.002,2.929-1.958,4.861 c0.046,2.004,0.873,3.98,2.331,5.563L123.022,81.46z"/><path fill="#FAE6CA" d="M115.037,100.298L95.193,78.742c-3.657-3.973-3.789-9.8-0.296-13.017v0 c3.494-3.216,9.291-2.603,12.948,1.37l19.844,21.556c3.657,3.973,3.789,9.8,0.296,13.017l0,0 C124.491,104.883,118.694,104.27,115.037,100.298z"/><path fill="#3A312A" d="M122.539,105.222c-3.057,0-6.235-1.332-8.605-3.908L94.089,79.758c-2.016-2.19-3.162-4.951-3.226-7.774 c-0.066-2.896,1.006-5.511,3.018-7.362c2.012-1.852,4.708-2.705,7.586-2.399c2.808,0.297,5.465,1.667,7.481,3.856l19.844,21.556 c4.211,4.575,4.304,11.365,0.209,15.136C127.21,104.419,124.911,105.222,122.539,105.222z M116.141,99.282 c3.091,3.357,7.948,3.931,10.828,1.282c2.88-2.651,2.707-7.539-0.383-10.898L106.742,68.11c-3.092-3.359-7.948-3.932-10.829-1.282 c-2.879,2.651-2.708,7.54,0.383,10.897L116.141,99.282z"/><path fill="#FAE6CA" d="M98.05,107.26L86.852,95.095c-3.657-3.973-3.789-9.8-0.296-13.017l0,0 c3.494-3.216,9.291-2.603,12.948,1.369l11.198,12.165c3.657,3.973,3.79,9.8,0.296,13.017h0 C107.504,111.846,101.707,111.233,98.05,107.26z"/><path fill="#3A312A" d="M105.565,112.193c-0.376,0-0.755-0.02-1.138-0.061c-2.808-0.297-5.465-1.667-7.481-3.856L85.748,96.111 c-4.211-4.575-4.304-11.365-0.208-15.136c2.012-1.852,4.707-2.702,7.587-2.399c2.808,0.297,5.465,1.666,7.48,3.857l11.199,12.164 c2.016,2.19,3.162,4.951,3.226,7.774c0.066,2.896-1.006,5.511-3.018,7.362C110.27,111.339,108.012,112.193,105.565,112.193z M92,81.516c-1.697,0-3.246,0.579-4.428,1.667c-2.88,2.651-2.708,7.54,0.383,10.897l11.199,12.165 c1.522,1.653,3.507,2.685,5.589,2.905c2.009,0.211,3.871-0.364,5.239-1.623c1.368-1.259,2.096-3.066,2.051-5.087 c-0.048-2.094-0.912-4.157-2.434-5.81L98.4,84.464c-1.521-1.653-3.506-2.685-5.589-2.905C92.538,81.53,92.267,81.516,92,81.516z"/><path fill="#FAE6CA" d="M81.352,114.535l-3.263-3.541c-3.661-3.972-3.795-9.803-0.3-13.021l0,0 c3.492-3.215,9.286-2.604,12.944,1.365l3.263,3.541c3.661,3.972,3.795,9.803,0.299,13.021l0,0 C90.804,119.115,85.01,118.504,81.352,114.535z"/><path fill="#3A312A" d="M88.851,119.454c-3.055,0-6.231-1.331-8.602-3.903l-3.263-3.541c-2.018-2.19-3.165-4.951-3.23-7.775 c-0.067-2.897,1.005-5.513,3.017-7.366c4.095-3.769,10.853-3.118,15.063,1.452l3.264,3.541c2.018,2.189,3.164,4.951,3.229,7.775 c0.067,2.897-1.005,5.513-3.017,7.366C93.522,118.651,91.223,119.454,88.851,119.454z M83.24,97.411 c-1.643,0-3.216,0.544-4.435,1.666c-1.368,1.26-2.096,3.067-2.05,5.089c0.048,2.095,0.914,4.159,2.437,5.812l3.263,3.541l0,0 c3.09,3.354,7.946,3.928,10.825,1.278c1.369-1.26,2.097-3.067,2.05-5.09c-0.048-2.095-0.914-4.158-2.437-5.811l-3.264-3.541 C87.848,98.42,85.478,97.411,83.24,97.411z"/></svg>