<svg xmlns="http://www.w3.org/2000/svg"  viewBox="0 0 50 50" width="100px" height="100px" baseProfile="basic"><rect width="20" height="4" x="15" y="13" fill="#16d6fa"/><rect width="20" height="4" x="15" y="29" fill="#16d6fa"/><rect width="25" height="4" x="15" y="21" fill="#16d6fa"/><rect width="3.999" height="3.999" x="15.001" y="13" fill="#00a4ff"/><rect width="3.999" height="3.999" x="15.001" y="21" fill="#00a4ff"/><rect width="3.999" height="3.999" x="15.001" y="29" fill="#00a4ff"/><path fill="#2dea55" d="M48,22.5c0-2.138-0.47-4.265-1.372-6.264C43.357,8.319,34.666,3,25,3S6.643,8.319,3.397,16.179 C2.47,18.235,2,20.362,2,22.5c0,0.08,0.003,0.159,0.009,0.275C2.004,22.85,2,22.925,2,23c0,5.077,2.186,9.848,6.023,13.485 c0.47-1.37,0.924-2.831,1.361-4.391C7.211,29.465,6,26.326,5.999,23.065c0.008-0.091,0.013-0.181,0.013-0.313L6,22.5 c0-1.567,0.352-3.141,1.069-4.736C9.729,11.325,16.935,7,25,7s15.271,4.325,17.956,10.821c0.686,1.522,1.037,3.079,1.044,4.631 c-0.008,0.079-0.013,0.161-0.015,0.331C43.986,22.866,43.992,22.948,44,23c0,8.822-8.523,16-19,16 c-1.191,0-2.424-0.104-3.661-0.308l-0.991-0.163l-0.724,0.698c-1.615,1.56-3.48,2.64-5.575,3.233 c0.949-1.796,1.251-2.932,1.876-5.408c-1.303-0.599-2.5-1.335-3.596-2.164c-0.889,4.156-1.598,5.861-3.918,8.897L5.954,47H10 c4.447,0,8.457-1.454,11.661-4.218C22.787,42.927,23.906,43,25,43c12.683,0,23-8.972,23-20c0-0.085-0.004-0.169-0.011-0.249 C47.996,22.668,48,22.585,48,22.5z"/><path fill="#0cbc35" d="M25.429,38.982C25.285,38.984,25.145,39,25,39c-1.59,0-3.127-0.184-4.605-0.495 c-1.348,1.283-2.613,2.313-4.028,3.035c1.683,0.604,3.423,1.015,5.278,1.257C22.958,41.739,24.173,40.454,25.429,38.982z"/></svg>