<svg xmlns="http://www.w3.org/2000/svg"  viewBox="0 0 48 48" width="48px" height="48px"><linearGradient id="SVGID_1_" x1="37.081" x2="10.918" y1="10.918" y2="37.081" gradientUnits="userSpaceOnUse"><stop offset="0" stop-color="#60affe"/><stop offset=".033" stop-color="#6ab4fe"/><stop offset=".197" stop-color="#97cbfe"/><stop offset=".362" stop-color="#bddeff"/><stop offset=".525" stop-color="#daecff"/><stop offset=".687" stop-color="#eef7ff"/><stop offset=".846" stop-color="#fbfdff"/><stop offset="1" stop-color="#fff"/></linearGradient><circle cx="24" cy="24" r="18.5" fill="url(#SVGID_1_)"/><path fill="none" stroke="#2e9bfe" stroke-linecap="round" stroke-linejoin="round" stroke-width="3" d="M38.839,35.05C35.466,39.572,30.075,42.5,24,42.5C13.783,42.5,5.5,34.217,5.5,24	c0-2.101,0.35-4.119,0.995-6.001"/><path fill="none" stroke="#2e9bfe" stroke-linecap="round" stroke-linejoin="round" stroke-width="3" d="M12.382,9.602C15.557,7.037,19.599,5.5,24,5.5c10.217,0,18.5,8.283,18.5,18.5c0,1.197-0.114,2.367-0.331,3.5"/><circle cx="24" cy="18" r="4.5" fill="none" stroke="#2e9bfe" stroke-width="3"/><path fill="none" stroke="#2e9bfe" stroke-width="3" d="M32.5,30.342c0-1.57-1.272-2.842-2.842-2.842H18.342c-1.57,0-2.842,1.272-2.842,2.842v0	c0,2.7,3.445,5.159,8.5,5.159S32.5,33.042,32.5,30.342L32.5,30.342z"/></svg>