<?xml version="1.0" encoding="utf-8"?><!-- Generator: Adobe Illustrator 21.0.2, SVG Export Plug-In . SVG Version: 6.00 Build 0)  --><svg xmlns="http://www.w3.org/2000/svg" xmlns:xlink="http://www.w3.org/1999/xlink" viewBox="0 0 48 48" width="96px" height="96px"><g id="surface1"><path style="fill:#795548;" d="M24,13c-0.6,0-1-0.4-1-1c0-5.1,3.5-6.9,3.6-7l0.9,1.8C27.4,6.8,25,8.2,25,12C25,12.5,24.6,13,24,13z   "/><path style="fill:#795548;" d="M22.5,12.9c-0.5,0-0.9-0.3-1-0.8c-0.4-2.3-3.3-2.2-3.5-2.2l-0.1-2c1.7-0.1,5,0.6,5.5,3.8   c0.1,0.5-0.3,1.1-0.8,1.2C22.6,12.9,22.6,12.9,22.5,12.9z"/><path style="fill:#FFCC80;" d="M24,11C13.7,11,7.7,18.5,7.7,28.9C7.7,37.8,14.9,43,24,43s16.3-5.2,16.3-14.1   C40.3,18.5,34.3,11,24,11z"/><path style="fill:#FFCC80;" d="M43,31c0,2.2-1.8,4-4,4s-4-1.8-4-4s1.8-4,4-4S43,28.8,43,31z"/><path style="fill:#FFCC80;" d="M13,31c0,2.2-1.8,4-4,4s-4-1.8-4-4s1.8-4,4-4S13,28.8,13,31z"/><path style="fill:#FF5722;" d="M15,35c0,0,2-9,9-9s9,9,9,9s-4-0.9-9-1S15,35,15,35z"/><path style="fill:#5D4037;" d="M32.2,25.6c0,0-2-2.6-5.2-2.6v-2c4.2,0,6.7,3.3,6.8,3.4L32.2,25.6z"/><path style="fill:#5D4037;" d="M15.8,25.6l-1.6-1.2c0.1-0.1,2.6-3.4,6.8-3.4v2C17.8,23,15.8,25.6,15.8,25.6z"/><path style="fill:#FFFFFF;" d="M9,30c0-2,3-4,3-4c0,2,1,3,1,4c0,1.1-0.9,2-2,2S9,31.1,9,30z"/><path style="fill:#FFFFFF;" d="M39,32c0-2-3-4-3-4c0,2-1,3-1,4c0,1.1,0.9,2,2,2S39,33.1,39,32z"/></g></svg>