<svg xmlns="http://www.w3.org/2000/svg"  viewBox="0 0 100 100" width="100px" height="100px"><path fill="#c8ede6" d="M87.214,55.677c0.3-0.616,0.566-1.264,0.796-1.943c2.633-7.77-1.349-17.078-9.733-19.325C77.37,23.026,69.37,15.216,60.335,13.884c-10.341-1.525-19.814,5.044-22.966,15.485c-3.799-1.346-7.501-1.182-10.99,0.857c-1.583,0.732-3.031,1.812-4.33,3.233c-1.907,2.086-3.147,4.719-3.652,7.495c-0.748,0.118-1.483,0.236-2.176,0.484c-4.04,1.449-6.589,4.431-7.288,8.923c-0.435,2.797,0.443,5.587,0.933,6.714c1.935,4.455,6.422,6.98,10.981,6.312c0.227-0.033,0.557,0.069,0.752,0.233c0.241,7.12,3.698,13.417,8.884,17.014c8.321,5.772,19.027,3.994,25.781-3.921c2.894,2.96,6.338,4.398,10.384,3.876c4.023-0.519,7.147-2.739,9.426-6.349c1.053,0.283,2.051,0.691,3.083,0.804c4.042,0.442,7.297-1.184,9.732-4.8c0.083-0.124,0.203-0.219,0.306-0.328c0.348-0.798,0.696-1.596,1.044-2.394c0.155-1.211,0.429-2.423,0.443-3.632C90.722,60.634,89.39,57.667,87.214,55.677z"/><path fill="#fdfcef" d="M38.521,44.526c0,0,11.691,0,11.762,0c2.7,0,4.888-2.189,4.888-4.889c0-2.355-1.666-4.321-3.884-4.784c0.026-0.206,0.043-0.415,0.043-0.628c0-2.796-2.267-5.063-5.063-5.063c-1.651,0-3.113,0.794-4.037,2.017c-0.236-3.113-3.017-5.514-6.27-5.116c-2.379,0.291-4.346,2.13-4.784,4.486c-0.14,0.756-0.126,1.489,0.014,2.177c-0.638-0.687-1.546-1.119-2.557-1.119c-1.85,0-3.361,1.441-3.48,3.261c-0.84-0.186-1.754-0.174-2.717,0.188c-1.84,0.691-3.15,2.423-3.227,4.387c-0.109,2.789,2.12,5.085,4.885,5.085c0.21,0,0.948,0,1.118,0h10.151"/><path fill="#472b29" d="M50.284,45.027H38.521c-0.276,0-0.5-0.224-0.5-0.5s0.224-0.5,0.5-0.5h11.763c2.419,0,4.388-1.969,4.388-4.389c0-2.067-1.466-3.873-3.486-4.295c-0.255-0.053-0.427-0.294-0.394-0.553c0.023-0.185,0.039-0.373,0.039-0.564c0-2.516-2.047-4.563-4.562-4.563c-1.439,0-2.766,0.663-3.638,1.818c-0.127,0.166-0.343,0.237-0.54,0.179c-0.2-0.059-0.342-0.235-0.358-0.442c-0.104-1.377-0.778-2.671-1.85-3.549c-1.083-0.888-2.452-1.282-3.86-1.109c-2.165,0.265-3.955,1.943-4.354,4.081c-0.123,0.667-0.118,1.336,0.014,1.987c0.044,0.22-0.062,0.442-0.262,0.544c-0.196,0.102-0.441,0.06-0.595-0.104c-0.574-0.619-1.353-0.959-2.19-0.959c-1.568,0-2.878,1.227-2.981,2.793c-0.01,0.146-0.082,0.28-0.199,0.367c-0.116,0.087-0.269,0.119-0.407,0.088c-0.843-0.188-1.639-0.131-2.434,0.167c-1.668,0.626-2.835,2.209-2.902,3.938c-0.048,1.207,0.386,2.35,1.221,3.217c0.836,0.869,1.959,1.348,3.164,1.348h11.269c0.276,0,0.5,0.224,0.5,0.5s-0.224,0.5-0.5,0.5H24.096c-1.479,0-2.859-0.587-3.885-1.654c-1.025-1.066-1.558-2.469-1.5-3.95c0.084-2.126,1.511-4.07,3.551-4.836c0.801-0.3,1.627-0.4,2.468-0.298c0.378-1.823,1.998-3.182,3.905-3.182c0.685,0,1.354,0.179,1.944,0.51c-0.001-0.385,0.034-0.772,0.106-1.159c0.477-2.562,2.621-4.574,5.215-4.891c1.685-0.208,3.32,0.267,4.615,1.328c1.004,0.823,1.716,1.951,2.038,3.193c1.012-0.916,2.319-1.425,3.714-1.425c3.067,0,5.562,2.496,5.562,5.563c0,0.083-0.002,0.166-0.007,0.249c2.255,0.673,3.848,2.777,3.848,5.164C55.671,42.609,53.254,45.027,50.284,45.027z"/><path fill="#fdfcef" d="M35.688,33.757c-1.808-0.119-3.365,1.13-3.476,2.789c-0.014,0.206-0.005,0.409,0.025,0.606c-0.349-0.394-0.865-0.661-1.458-0.7c-1.085-0.071-2.022,0.645-2.158,1.62c-0.197-0.054-0.403-0.09-0.616-0.104c-1.582-0.104-2.944,0.989-3.042,2.441"/><path fill="#472b29" d="M24.963,40.659c-0.006,0-0.011,0-0.017,0c-0.138-0.009-0.242-0.128-0.232-0.266c0.106-1.586,1.564-2.788,3.308-2.674c0.135,0.009,0.271,0.027,0.408,0.053c0.273-0.968,1.259-1.635,2.366-1.568c0.425,0.028,0.823,0.161,1.163,0.382c0.001-0.019,0.002-0.038,0.004-0.057c0.119-1.793,1.8-3.151,3.741-3.021c0.138,0.009,0.242,0.128,0.232,0.266c-0.008,0.132-0.118,0.233-0.249,0.233c-0.005,0-0.011,0-0.017,0c-1.661-0.111-3.107,1.038-3.21,2.556c-0.013,0.183-0.005,0.368,0.023,0.552c0.017,0.11-0.04,0.217-0.141,0.264c-0.1,0.047-0.22,0.023-0.293-0.06c-0.323-0.364-0.781-0.583-1.288-0.617c-0.948-0.062-1.775,0.556-1.894,1.405c-0.011,0.071-0.051,0.134-0.11,0.174c-0.06,0.04-0.135,0.051-0.203,0.033c-0.189-0.051-0.38-0.084-0.567-0.096c-1.441-0.095-2.688,0.896-2.776,2.208C25.203,40.558,25.094,40.659,24.963,40.659z"/><path fill="#fdfcef" d="M52.263,35.426c-1.699-0.801-3.664-0.234-4.389,1.267c-0.09,0.186-0.157,0.379-0.201,0.574"/><path fill="#472b29" d="M47.673,37.516c-0.018,0-0.036-0.002-0.055-0.006c-0.135-0.03-0.22-0.164-0.189-0.299c0.049-0.215,0.122-0.426,0.219-0.626c0.784-1.623,2.905-2.241,4.722-1.384c0.125,0.059,0.179,0.208,0.12,0.333c-0.06,0.125-0.21,0.177-0.333,0.12c-1.575-0.743-3.394-0.226-4.059,1.149c-0.08,0.166-0.141,0.341-0.181,0.52C47.891,37.438,47.787,37.516,47.673,37.516z"/><path fill="#fff" d="M84.762 50.5h-10.03c-.276 0-.5-.224-.5-.5s.224-.5.5-.5h10.03c.276 0 .5.224.5.5S85.038 50.5 84.762 50.5zM87.643 50.5h-1.445c-.276 0-.5-.224-.5-.5s.224-.5.5-.5h1.445c.276 0 .5.224.5.5S87.919 50.5 87.643 50.5zM91.698 50.5h-2.546c-.276 0-.5-.224-.5-.5s.224-.5.5-.5h2.546c.276 0 .5.224.5.5S91.974 50.5 91.698 50.5zM91.698 52.365h-9.616c-.276 0-.5-.224-.5-.5s.224-.5.5-.5h9.616c.276 0 .5.224.5.5S91.974 52.365 91.698 52.365zM80.35 52.365h-.58c-.276 0-.5-.224-.5-.5s.224-.5.5-.5h.58c.276 0 .5.224.5.5S80.626 52.365 80.35 52.365zM77.973 52.365h-1.456c-.276 0-.5-.224-.5-.5s.224-.5.5-.5h1.456c.276 0 .5.224.5.5S78.249 52.365 77.973 52.365zM87.109 48.635h-5.027c-.276 0-.5-.224-.5-.5s.224-.5.5-.5h5.027c.276 0 .5.224.5.5S87.385 48.635 87.109 48.635zM87.109 46.77h-1.257c-.276 0-.5-.224-.5-.5s.224-.5.5-.5h1.257c.276 0 .5.224.5.5S87.385 46.77 87.109 46.77zM83.84 54.23h-1.759c-.276 0-.5-.224-.5-.5s.224-.5.5-.5h1.759c.276 0 .5.224.5.5S84.117 54.23 83.84 54.23zM21.362 60.633h-10.03c-.276 0-.5-.224-.5-.5s.224-.5.5-.5h10.03c.276 0 .5.224.5.5S21.638 60.633 21.362 60.633zM24.244 60.633h-1.446c-.276 0-.5-.224-.5-.5s.224-.5.5-.5h1.446c.276 0 .5.224.5.5S24.52 60.633 24.244 60.633zM28.297 60.633h-2.546c-.276 0-.5-.224-.5-.5s.224-.5.5-.5h2.546c.276 0 .5.224.5.5S28.574 60.633 28.297 60.633zM26.272 56.904h-9.616c-.276 0-.5-.224-.5-.5s.224-.5.5-.5h9.616c.276 0 .5.224.5.5S26.548 56.904 26.272 56.904zM14.924 56.904h-.58c-.276 0-.5-.224-.5-.5s.224-.5.5-.5h.58c.276 0 .5.224.5.5S15.201 56.904 14.924 56.904zM12.547 56.904h-1.456c-.276 0-.5-.224-.5-.5s.224-.5.5-.5h1.456c.276 0 .5.224.5.5S12.824 56.904 12.547 56.904zM23.708 58.768h-5.027c-.276 0-.5-.224-.5-.5s.224-.5.5-.5h5.027c.276 0 .5.224.5.5S23.985 58.768 23.708 58.768z"/><path fill="#fff" d="M23.708 56.904h-1.257c-.276 0-.5-.224-.5-.5s.224-.5.5-.5h1.257c.276 0 .5.224.5.5S23.985 56.904 23.708 56.904zM17.226 58.768h-1.759c-.276 0-.5-.224-.5-.5s.224-.5.5-.5h1.759c.276 0 .5.224.5.5S17.502 58.768 17.226 58.768z"/><path fill="#bd977c" d="M43.556,75.181c-11.65-5.876-16.393-20.071-10.594-31.705s19.944-16.304,31.594-10.428S80.949,53.118,75.15,64.752S55.206,81.056,43.556,75.181z"/><path fill="#472b29" d="M54.167,78.427c-3.747,0-7.474-0.88-10.927-2.622l0,0c-11.974-6.039-16.866-20.683-10.905-32.643c2.882-5.781,7.842-10.084,13.968-12.119C52.46,29,59.055,29.489,64.871,32.422c11.974,6.039,16.865,20.683,10.905,32.643c-2.882,5.781-7.842,10.084-13.968,12.119C59.307,78.015,56.733,78.427,54.167,78.427z M43.871,74.556c5.482,2.765,11.695,3.226,17.496,1.299c5.771-1.917,10.442-5.97,13.155-11.415c5.618-11.273,1.006-25.075-10.282-30.769c-5.481-2.764-11.695-3.225-17.496-1.299c-5.771,1.917-10.442,5.97-13.155,11.415C27.97,55.06,32.583,68.863,43.871,74.556L43.871,74.556z"/><path fill="#836f61" d="M65.712,33.844l-2.163-1.084c-0.88-0.441-1.238-1.521-0.798-2.401l0,0c0.441-0.88,1.521-1.238,2.401-0.798l2.163,1.084c0.88,0.441,1.238,1.521,0.798,2.401v0C67.671,33.926,66.591,34.284,65.712,33.844z"/><path fill="#472b29" d="M66.509,34.408c-0.325,0-0.655-0.074-0.966-0.229l-2.163-1.084c-1.066-0.535-1.499-1.838-0.965-2.904c0.535-1.067,1.84-1.497,2.904-0.965l2.163,1.084c1.066,0.535,1.499,1.837,0.965,2.904C68.069,33.97,67.303,34.408,66.509,34.408z M65.879,33.508c0.702,0.351,1.55,0.065,1.898-0.63c0.349-0.697,0.066-1.548-0.631-1.897l-2.163-1.084c-0.695-0.349-1.549-0.068-1.898,0.631c-0.349,0.696-0.065,1.548,0.631,1.897L65.879,33.508z"/><path fill="#fdfcee" d="M54.394 33.799A19.92 19.92 0 1 0 54.394 73.63900000000001A19.92 19.92 0 1 0 54.394 33.799Z"/><path fill="#472b29" d="M68.469,32.715c-0.183,0-0.343-0.133-0.371-0.319c-0.03-0.205,0.11-0.396,0.315-0.426c1.556-0.234,2.904-1.213,3.609-2.618c1.195-2.385,0.227-5.298-2.158-6.494c-1.155-0.58-2.465-0.676-3.694-0.266c-1.227,0.407-2.221,1.268-2.8,2.423c-0.754,1.504-0.73,3.088,0.064,4.461c0.104,0.179,0.043,0.409-0.137,0.513c-0.176,0.103-0.408,0.043-0.512-0.137c-0.927-1.599-0.957-3.436-0.086-5.173c1.38-2.755,4.744-3.871,7.5-2.492c2.755,1.381,3.873,4.746,2.492,7.501c-0.813,1.623-2.371,2.753-4.168,3.023C68.506,32.714,68.488,32.715,68.469,32.715z"/><path fill="#cdcbbd" d="M64.432,56.723c0.281,0.006,0.532-0.045,0.611-0.363c0.078-0.314-0.054-0.534-0.341-0.67c-0.065-0.031-0.128-0.067-0.193-0.099c-1.931-0.956-3.861-1.912-5.828-2.886c0.124-0.128,0.219-0.233,0.321-0.332c0.771-0.746,1.537-1.498,2.318-2.233c0.24-0.226,0.363-0.433,0.164-0.751c-0.19-0.302-0.428-0.28-0.716-0.181c-1.015,0.349-2.033,0.687-3.05,1.027c-0.127,0.042-0.257,0.074-0.42,0.12c0.044-2.272,0.085-4.47,0.129-6.669c0.006-0.281-0.047-0.533-0.359-0.617c-0.335-0.091-0.506,0.112-0.639,0.383c-0.657,1.338-3.181,7.898-3.181,7.898s-7.208-0.335-8.826-0.366c-0.305-0.006-0.599,0.008-0.683,0.379c-0.078,0.343,0.144,0.5,0.416,0.617c0.066,0.028,0.128,0.068,0.193,0.1c1.942,0.963,3.885,1.926,5.858,2.904c-0.107,0.118-0.188,0.216-0.279,0.304c-0.801,0.777-1.602,1.555-2.409,2.327c-0.2,0.191-0.384,0.375-0.217,0.671c0.183,0.324,0.453,0.229,0.724,0.137c1.153-0.389,2.306-0.774,3.502-1.174c0.006,0.148,0.015,0.26,0.014,0.371c-0.037,2.113-0.074,4.226-0.115,6.339c-0.006,0.298,0.035,0.562,0.377,0.643c0.34,0.08,0.498-0.135,0.627-0.404c0.357-0.744,3.218-7.285,3.218-7.285S63.361,56.702,64.432,56.723z"/><path fill="#472b29" d="M52.155,64.871c-0.062,0-0.127-0.008-0.197-0.024c-0.584-0.138-0.573-0.685-0.569-0.891c0.041-2.108,0.078-4.216,0.115-6.325c0-0.013,0-0.025,0-0.038l-0.432,0.145c-0.933,0.312-1.844,0.616-2.754,0.924c-0.282,0.094-0.738,0.25-1.022-0.251c-0.266-0.472,0.064-0.787,0.262-0.976c0.755-0.72,1.503-1.446,2.251-2.172l0.157-0.152c0.016-0.016,0.031-0.031,0.047-0.047l-5.65-2.804c-0.03-0.017-0.061-0.034-0.092-0.047c-0.174-0.075-0.699-0.301-0.562-0.903c0.134-0.59,0.673-0.579,0.932-0.573l4.854,0.089c0.138,0.002,0.247,0.116,0.245,0.254c-0.003,0.137-0.114,0.246-0.25,0.246c-0.001,0-0.003,0-0.005,0l-4.854-0.089c-0.355-0.002-0.401,0.042-0.434,0.184c-0.028,0.123-0.024,0.206,0.271,0.333c0.047,0.02,0.092,0.044,0.138,0.069l0.066,0.036l5.859,2.904c0.07,0.035,0.12,0.101,0.135,0.178c0.014,0.077-0.009,0.156-0.062,0.214l-0.097,0.108c-0.067,0.076-0.128,0.145-0.193,0.208l-0.157,0.152c-0.748,0.727-1.498,1.455-2.253,2.175c-0.236,0.225-0.23,0.265-0.172,0.368c0.063,0.113,0.091,0.136,0.418,0.026c0.92-0.311,1.831-0.615,2.764-0.927l0.748-0.25c0.073-0.024,0.156-0.013,0.221,0.032c0.065,0.044,0.105,0.117,0.108,0.196l0.006,0.134c0.005,0.091,0.009,0.171,0.008,0.251c-0.037,2.122-0.074,4.231-0.115,6.339c-0.007,0.333,0.065,0.367,0.185,0.395c0.114,0.027,0.198,0.032,0.344-0.269c0.185-0.383,0.63-1.542,1.023-2.565c0.382-0.994,0.712-1.852,0.841-2.116c0.062-0.124,0.214-0.173,0.335-0.114c0.124,0.061,0.175,0.211,0.114,0.335c-0.12,0.243-0.478,1.174-0.823,2.075c-0.416,1.082-0.847,2.201-1.039,2.602C52.789,64.47,52.597,64.871,52.155,64.871z M64.699,56.974c-0.022,0-0.042,0-0.059,0c-0.496-0.01-1.243-0.029-2.008-0.049c-0.887-0.023-1.798-0.046-2.373-0.057c-0.138-0.002-0.248-0.117-0.245-0.255c0.003-0.138,0.094-0.251,0.255-0.245c0.575,0.011,1.488,0.034,2.376,0.057c0.765,0.02,1.51,0.039,2.005,0.049c0.288,0.007,0.337-0.064,0.364-0.173c0.037-0.154,0.018-0.278-0.205-0.383l-2.651-1.316l-3.375-1.671c-0.071-0.036-0.121-0.103-0.135-0.182s0.011-0.159,0.066-0.216l0.122-0.128c0.072-0.076,0.138-0.145,0.206-0.21l0.555-0.539c0.585-0.568,1.171-1.137,1.764-1.696c0.229-0.215,0.216-0.291,0.124-0.436c-0.083-0.134-0.142-0.174-0.423-0.078c-0.832,0.286-1.666,0.565-2.5,0.844l-0.553,0.185c-0.088,0.029-0.178,0.054-0.278,0.082l-0.152,0.042c-0.076,0.023-0.158,0.005-0.221-0.042c-0.063-0.049-0.1-0.124-0.098-0.203l0.129-6.669c0.005-0.299-0.069-0.342-0.175-0.371c-0.121-0.03-0.21-0.032-0.349,0.252c-0.656,1.339-1.315,2.676-1.979,4.012c-0.06,0.125-0.208,0.175-0.335,0.113c-0.123-0.062-0.174-0.211-0.112-0.335c0.661-1.335,1.32-2.672,1.977-4.01c0.082-0.167,0.327-0.675,0.929-0.515c0.557,0.15,0.547,0.687,0.544,0.863l-0.122,6.334c0.028-0.009,0.056-0.017,0.084-0.027l0.552-0.184c0.833-0.278,1.666-0.557,2.497-0.842c0.185-0.064,0.681-0.235,1.009,0.284c0.346,0.548-0.04,0.911-0.205,1.065c-0.591,0.558-1.175,1.125-1.758,1.691l-0.557,0.54c-0.027,0.026-0.053,0.052-0.079,0.079l5.712,2.832c0.405,0.192,0.579,0.54,0.478,0.956C65.37,56.935,64.914,56.974,64.699,56.974z"/><path fill="#ee3e54" d="M49.226,43.593c-0.206-0.323-0.758-0.342-1.225-0.043c-0.467,0.299-0.681,0.807-0.474,1.13l5.152,10.034l6.95,8.884c0.206,0.323,0.758,0.342,1.225,0.043s0.681-0.807,0.474-1.13l-5.152-10.034L49.226,43.593z M54.933,54.385c-0.436,0.279-1.016,0.152-1.295-0.284c-0.279-0.436-0.152-1.016,0.285-1.295c0.436-0.279,1.016-0.152,1.295,0.285C55.496,53.526,55.369,54.106,54.933,54.385z"/><path fill="#472b29" d="M60.18,64.229c-0.092,0-0.182-0.009-0.27-0.029c-0.256-0.056-0.469-0.198-0.598-0.4l-6.929-8.855l-5.19-10.094c-0.147-0.228-0.165-0.564-0.027-0.891c0.118-0.284,0.344-0.542,0.633-0.727c0.289-0.185,0.608-0.292,0.926-0.27c0.346,0.012,0.639,0.162,0.806,0.411l6.94,8.872l5.19,10.094c0.147,0.228,0.165,0.564,0.027,0.891c-0.118,0.284-0.344,0.542-0.633,0.727C60.779,64.135,60.471,64.229,60.18,64.229z M48.677,43.712c-0.149,0-0.32,0.055-0.474,0.153c-0.16,0.103-0.286,0.243-0.346,0.385c-0.04,0.094-0.045,0.179-0.015,0.227l5.17,10.065l6.911,8.825c0.048,0.071,0.104,0.091,0.147,0.101c0.132,0.029,0.348,0.006,0.58-0.142c0.16-0.103,0.286-0.243,0.346-0.385c0.04-0.094,0.045-0.179,0.015-0.227l-5.17-10.065l-6.911-8.825c-0.008-0.009-0.015-0.019-0.021-0.029c-0.03-0.047-0.109-0.078-0.211-0.082C48.692,43.712,48.685,43.712,48.677,43.712z M54.43,54.907c-0.434,0-0.857-0.213-1.107-0.604c-0.391-0.609-0.212-1.422,0.397-1.812c0.608-0.39,1.422-0.211,1.812,0.398c0.189,0.295,0.252,0.646,0.177,0.989s-0.279,0.635-0.574,0.824l0,0C54.916,54.84,54.672,54.907,54.43,54.907z M54.933,54.384h0.01H54.933z M54.426,53.033c-0.104,0-0.208,0.029-0.302,0.088c-0.261,0.167-0.338,0.516-0.171,0.777c0.167,0.261,0.516,0.338,0.777,0.17l0,0c0.126-0.081,0.214-0.206,0.246-0.353c0.032-0.146,0.006-0.297-0.075-0.423C54.794,53.125,54.612,53.033,54.426,53.033z"/><path fill="#472b29" d="M34.217 54.971c-.201 0-.367-.159-.375-.361-.009-.249-.009-.36-.009-.61 0-11.217 9.126-20.343 20.343-20.343 6.336 0 12.284 2.852 15.911 7.628.125.165.093.4-.072.525-.164.125-.399.093-.525-.072-3.485-4.591-9.21-7.332-15.313-7.332-10.804 0-19.593 8.789-19.593 19.593 0 .239 0 .346.009.583.007.207-.154.381-.361.388C34.226 54.971 34.221 54.971 34.217 54.971zM34.511 57.857c-.18 0-.338-.129-.369-.312l-.068-.415c-.032-.205.107-.396.312-.429.21-.035.396.108.428.312l.066.404c.035.204-.102.398-.306.433C34.553 57.855 34.532 57.857 34.511 57.857zM54.176 74.343c-9.487 0-17.629-6.44-19.801-15.661-.047-.202.078-.403.279-.451.207-.049.403.078.451.279 2.091 8.88 9.933 15.083 19.07 15.083 10.804 0 19.593-8.789 19.593-19.593 0-2.982-.652-5.845-1.939-8.51-.09-.187-.012-.411.175-.501.187-.091.411-.012.501.175 1.336 2.768 2.014 5.74 2.014 8.836C74.519 65.217 65.393 74.343 54.176 74.343zM71.203 43.938c-.126 0-.249-.063-.319-.179-.159-.259-.325-.515-.496-.767-.116-.171-.071-.405.1-.521.173-.115.405-.072.521.1.177.261.349.526.514.795.108.177.054.408-.123.516C71.337 43.92 71.27 43.938 71.203 43.938z"/><path fill="#472b29" d="M54.503 38.335c-.138 0-.25-.112-.25-.25v-3.589c0-.138.112-.25.25-.25s.25.112.25.25v3.589C54.753 38.223 54.641 38.335 54.503 38.335zM54.503 74.228c-.138 0-.25-.112-.25-.25v-3.589c0-.138.112-.25.25-.25s.25.112.25.25v3.589C54.753 74.116 54.641 74.228 54.503 74.228zM73.797 55.027h-3.59c-.138 0-.25-.112-.25-.25s.112-.25.25-.25h3.59c.138 0 .25.112.25.25S73.935 55.027 73.797 55.027zM37.905 55.027h-3.59c-.138 0-.25-.112-.25-.25s.112-.25.25-.25h3.59c.138 0 .25.112.25.25S38.042 55.027 37.905 55.027zM52.061 64.549c-.006 0-.013 0-.02-.001-.067-.011-.114-.074-.104-.143l.608-3.932c.01-.068.068-.114.143-.104.067.011.114.074.104.143l-.608 3.932C52.175 64.505 52.121 64.549 52.061 64.549zM65.194 56.381c-.008 0-.016 0-.023-.002l-3.628-.688c-.067-.013-.112-.079-.1-.146.014-.068.077-.115.146-.1l3.628.689c.067.013.112.079.1.146C65.305 56.34 65.252 56.381 65.194 56.381zM47.642 58.327c-.042 0-.083-.021-.106-.06-.036-.059-.018-.136.041-.172l2.392-1.459c.061-.035.136-.017.172.042.036.059.018.136-.041.172l-2.392 1.459C47.687 58.321 47.664 58.327 47.642 58.327zM59.357 50.879c-.043 0-.085-.022-.108-.062-.034-.06-.015-.136.046-.171l2.34-1.364c.059-.035.135-.016.171.045.034.06.015.136-.046.171l-2.34 1.364C59.4 50.874 59.378 50.879 59.357 50.879zM46.872 52.085c-.008 0-.017-.001-.025-.002l-2.921-.596c-.067-.014-.111-.08-.097-.147.013-.067.072-.11.147-.098l2.921.596c.067.014.111.08.097.147C46.983 52.044 46.931 52.085 46.872 52.085zM56.498 46.045c-.012 0-.022-.001-.034-.005-.066-.019-.105-.088-.086-.154l.783-2.734c.019-.067.089-.106.154-.086.066.019.105.088.086.154l-.783 2.734C56.603 46.009 56.553 46.045 56.498 46.045zM68.19 43.032c-.077 0-.152-.035-.201-.102-.082-.111-.058-.268.054-.35l1.629-1.194c.108-.082.267-.059.349.054.082.111.058.268-.054.35l-1.629 1.194C68.293 43.017 68.242 43.032 68.19 43.032zM39.32 67.63c-.07 0-.141-.03-.19-.088-.09-.105-.077-.263.028-.353l1.208-1.029c.105-.089.263-.077.353.028.09.105.077.263-.028.353l-1.208 1.029C39.435 67.611 39.377 67.63 39.32 67.63z"/><g><path fill="#472b29" d="M66.448 69.864c-.07 0-.141-.03-.19-.088L65.4 68.768c-.09-.105-.077-.263.028-.353.104-.088.263-.077.353.028l.857 1.007c.09.105.077.263-.028.353C66.563 69.844 66.505 69.864 66.448 69.864zM41.667 40.779c-.07 0-.141-.03-.19-.088l-.825-.968c-.09-.105-.077-.263.028-.353.105-.089.262-.077.353.028l.825.968c.09.105.077.263-.028.353C41.783 40.759 41.725 40.779 41.667 40.779z"/></g><g><path fill="#fdfcef" d="M70.876,77.986c1.883,0,3.517,0,3.54,0c2.11,0,3.821-1.674,3.821-3.739c0-1.802-1.302-3.305-3.035-3.66c0.02-0.158,0.034-0.317,0.034-0.48c0-2.139-1.772-3.873-3.957-3.873c-1.29,0-2.433,0.607-3.155,1.543c-0.185-2.381-2.358-4.218-4.9-3.913c-1.859,0.223-3.397,1.629-3.739,3.431c-0.11,0.578-0.098,1.139,0.011,1.665c-0.498-0.525-1.208-0.856-1.998-0.856c-1.446,0-2.627,1.102-2.72,2.494c-0.657-0.142-1.371-0.133-2.123,0.143c-1.438,0.528-2.462,1.853-2.522,3.356c-0.085,2.133,1.657,3.889,3.818,3.889c0.164,0,0.741,0,0.874,0h7.934 M64.399,77.986h0.36"/><path fill="#472b29" d="M74.416,78.486h-3.54c-0.276,0-0.5-0.224-0.5-0.5s0.224-0.5,0.5-0.5h3.54c1.831,0,3.32-1.453,3.32-3.239c0-1.524-1.108-2.857-2.636-3.17c-0.255-0.052-0.428-0.292-0.396-0.551c0.017-0.138,0.029-0.277,0.029-0.419c0-1.86-1.551-3.373-3.457-3.373c-1.092,0-2.098,0.491-2.76,1.348c-0.126,0.164-0.339,0.232-0.539,0.173c-0.197-0.059-0.339-0.234-0.354-0.44c-0.079-1.019-0.565-1.943-1.369-2.603c-0.829-0.679-1.886-0.984-2.973-0.852c-1.646,0.197-3.007,1.442-3.308,3.028c-0.094,0.495-0.091,0.99,0.009,1.471c0.046,0.219-0.06,0.441-0.258,0.544c-0.197,0.104-0.439,0.064-0.595-0.099c-0.428-0.452-1.009-0.7-1.635-0.7c-1.169,0-2.145,0.891-2.221,2.028c-0.01,0.145-0.082,0.278-0.198,0.366s-0.264,0.119-0.406,0.089c-0.64-0.139-1.243-0.097-1.845,0.124c-1.262,0.463-2.145,1.631-2.195,2.906c-0.035,0.875,0.282,1.708,0.895,2.345c0.635,0.661,1.495,1.024,2.423,1.024h8.808c0.276,0,0.5,0.224,0.5,0.5s-0.224,0.5-0.5,0.5h-8.808c-1.185,0-2.33-0.485-3.144-1.332c-0.803-0.835-1.219-1.928-1.174-3.078c0.068-1.675,1.213-3.204,2.85-3.805c0.61-0.225,1.24-0.305,1.881-0.245c0.345-1.396,1.629-2.424,3.135-2.424c0.493,0,0.977,0.113,1.414,0.323c0.009-0.241,0.036-0.483,0.082-0.726c0.381-2.009,2.097-3.586,4.171-3.834c1.362-0.161,2.685,0.218,3.726,1.072c0.748,0.613,1.278,1.409,1.546,2.302c0.791-0.648,1.786-1.007,2.843-1.007c2.458,0,4.457,1.962,4.457,4.373c0,0.034-0.001,0.068-0.002,0.102c1.765,0.555,3.004,2.188,3.004,4.038C78.737,76.584,76.798,78.486,74.416,78.486z M64.758,78.486h-0.359c-0.276,0-0.5-0.224-0.5-0.5s0.224-0.5,0.5-0.5h0.359c0.276,0,0.5,0.224,0.5,0.5S65.035,78.486,64.758,78.486z"/><path fill="#472b29" d="M72.708,72.683c-0.018,0-0.036-0.002-0.055-0.006c-0.135-0.03-0.22-0.164-0.189-0.299c0.037-0.166,0.095-0.328,0.171-0.48c0.604-1.223,2.273-1.674,3.721-1.006c0.126,0.058,0.181,0.207,0.122,0.332c-0.058,0.125-0.209,0.181-0.331,0.122c-1.207-0.557-2.579-0.208-3.063,0.774c-0.059,0.117-0.103,0.24-0.131,0.367C72.926,72.604,72.823,72.683,72.708,72.683z"/><g><path fill="#472b29" d="M67.55,78.486h-1.107c-0.276,0-0.5-0.224-0.5-0.5s0.224-0.5,0.5-0.5h1.107c0.276,0,0.5,0.224,0.5,0.5S67.827,78.486,67.55,78.486z"/></g></g></svg>